<svg xmlns="http://www.w3.org/2000/svg" width="1374" height="1145" viewBox="0 0 1374 1145"><image id="unaltered-candidate" width="1374" height="1145" href="SL_WORLD_V13_SCOPE_RESTRICTED_01.png"/><g id="editable-Chinese-function-labels" font-family="Microsoft YaHei,Arial" font-size="14"><path d="M645.78 217.55 L398.46 76.7" fill="none" stroke="#fff7de" stroke-width="2"/><rect x="394.46" y="55.7" width="191" height="26" rx="3" fill="#234e49" opacity=".9"/><text x="398.46" y="73.7" fill="#fff7de">山腰神社：社殿/朱鸟居恢复</text><path d="M645.78 492.34999999999997 L329.76 397.3" fill="none" stroke="#fff7de" stroke-width="2"/><rect x="325.76" y="376.3" width="191" height="26" rx="3" fill="#234e49" opacity=".9"/><text x="329.76" y="394.3" fill="#fff7de">校园：分期楼群/校钟/校门</text><path d="M625.1700000000001 621.735 L96.18 614.85" fill="none" stroke="#fff7de" stroke-width="2"/><rect x="92.18" y="593.85" width="177" height="26" rx="3" fill="#234e49" opacity=".9"/><text x="96.18" y="611.85" fill="#fff7de">旧街邻里停留：中心留通路</text><path d="M219.84 698.4499999999999 L48.09 511.8" fill="none" stroke="#fff7de" stroke-width="2"/><rect x="44.09" y="490.8" width="149" height="26" rx="3" fill="#234e49" opacity=".9"/><text x="48.09" y="508.8" fill="#fff7de">西区：住宅与公共服务</text><path d="M1085.46 583.95 L948.06 477.45" fill="none" stroke="#fff7de" stroke-width="2"/><rect x="944.06" y="456.45" width="163" height="26" rx="3" fill="#234e49" opacity=".9"/><text x="948.06" y="474.45" fill="#fff7de">东区：就业底商与过渡街</text><path d="M1287.438 538.15 L1016.76 351.5" fill="none" stroke="#fff7de" stroke-width="2"/><rect x="1012.76" y="330.5" width="191" height="26" rx="3" fill="#234e49" opacity=".9"/><text x="1016.76" y="348.5" fill="#fff7de">站前：出口—侧候车—城镇路</text><path d="M288.53999999999996 858.75 L54.96 946.9" fill="none" stroke="#fff7de" stroke-width="2"/><rect x="50.96" y="925.9" width="191" height="26" rx="3" fill="#234e49" opacity=".9"/><text x="54.96" y="943.9" fill="#fff7de">海滩：入口活动—安静—自然</text><path d="M824.4 881.65 L632.0400000000001 1015.6" fill="none" stroke="#fff7de" stroke-width="2"/><rect x="628.0400000000001" y="994.6" width="191" height="26" rx="3" fill="#234e49" opacity=".9"/><text x="632.0400000000001" y="1012.6" fill="#fff7de">河口：浅滩/湿地/出海主槽</text><path d="M1140.4199999999998 847.3 L961.8 752.25" fill="none" stroke="#fff7de" stroke-width="2"/><rect x="957.8" y="731.25" width="191" height="26" rx="3" fill="#234e49" opacity=".9"/><text x="961.8" y="749.25" fill="#fff7de">小渔务：侧岸作业，规模待核</text></g><g id="scope-disclaimer"><rect y="1116" width="1374" height="29" fill="#244c46"/><text x="12" y="1135" font-family="Microsoft YaHei" font-size="12" fill="#fff2d6">V13 九项限定编辑｜地区功能引线非精确测绘。建筑ID/坐标以PLAN/JSON为准；原生1374×1145，未放大。</text></g></svg>