<svg xmlns="http://www.w3.org/2000/svg" width="1374" height="1145" viewBox="0 0 1374 1145"><style>text{font-family:Microsoft YaHei,Arial,sans-serif}</style><g id="unaltered_original_raster"><image width="1374" height="1145" href="Originals/SL_WORLD_V10_CONCEPT_01.png"/></g><g id="editable_title"><rect x="0" y="0" width="960" height="51" fill="#f5f4e9" fill-opacity=".92"/><text x="15" y="23" font-size="19" fill="#2b514e">澄坂市 V10 · 生活产业与自然探索｜唯一整体候选</text><text x="15" y="43" font-size="12" fill="#2b514e">区域引线仅气氛定位；准确建筑/门/道路按PLAN及JSON。原生1374×1145，额外桥/体量/风格待审。</text></g><g id="editable_region_function_callouts"><path d="M159 102L355 189" fill="none" stroke="#f8f4e7" stroke-width="3"/><path d="M159 102L355 189" fill="none" stroke="#517970" stroke-width="1"/><circle cx="355" cy="189" r="3" fill="#fff5d8" stroke="#648174"/><rect x="20" y="84" width="278" height="24" rx="3" fill="#f7f4e4" fill-opacity=".94"/><text x="25" y="102" font-size="12" fill="#2b514e">R08 独立湖盆 / 北山（湖边增物未采纳）</text><path d="M822 90L685 301" fill="none" stroke="#f8f4e7" stroke-width="3"/><path d="M822 90L685 301" fill="none" stroke="#517970" stroke-width="1"/><circle cx="685" cy="301" r="3" fill="#fff5d8" stroke="#648174"/><rect x="677" y="72" width="290" height="24" rx="3" fill="#f7f4e4" fill-opacity=".94"/><text x="682" y="90" font-size="12" fill="#2b514e">R06 神社林坡 / B40（精确门位按底稿）</text><path d="M676 416L675 493" fill="none" stroke="#f8f4e7" stroke-width="3"/><path d="M676 416L675 493" fill="none" stroke="#517970" stroke-width="1"/><circle cx="675" cy="493" r="3" fill="#fff5d8" stroke="#648174"/><rect x="555" y="398" width="242" height="24" rx="3" fill="#f7f4e4" fill-opacity=".94"/><text x="560" y="416" font-size="12" fill="#2b514e">R01 校园 / 原旧钟（比例未核验）</text><path d="M468 357L557 443" fill="none" stroke="#f8f4e7" stroke-width="3"/><path d="M468 357L557 443" fill="none" stroke="#517970" stroke-width="1"/><circle cx="557" cy="443" r="3" fill="#fff5d8" stroke="#648174"/><rect x="341" y="339" width="254" height="24" rx="3" fill="#f7f4e4" fill-opacity=".94"/><text x="346" y="357" font-size="12" fill="#2b514e">B12 青帽塔 / 校西坡（原坐标保持）</text><path d="M189 486L340 549" fill="none" stroke="#f8f4e7" stroke-width="3"/><path d="M189 486L340 549" fill="none" stroke="#517970" stroke-width="1"/><circle cx="340" cy="549" r="3" fill="#fff5d8" stroke="#648174"/><rect x="20" y="468" width="338" height="24" rx="3" fill="#f7f4e4" fill-opacity=".94"/><text x="25" y="486" font-size="12" fill="#2b514e">R03 成熟住宅 / B20医院 B21馆 B22社区</text><path d="M509 740L650 600" fill="none" stroke="#f8f4e7" stroke-width="3"/><path d="M509 740L650 600" fill="none" stroke="#517970" stroke-width="1"/><circle cx="650" cy="600" r="3" fill="#fff5d8" stroke="#648174"/><rect x="310" y="722" width="398" height="24" rx="3" fill="#f7f4e4" fill-opacity=".94"/><text x="315" y="740" font-size="12" fill="#2b514e">R02 通学旧街 / B02 B03 B04 / U28钱汤候选</text><path d="M1120 670L993 565" fill="none" stroke="#f8f4e7" stroke-width="3"/><path d="M1120 670L993 565" fill="none" stroke="#517970" stroke-width="1"/><circle cx="993" cy="565" r="3" fill="#fff5d8" stroke="#648174"/><rect x="1023" y="652" width="194" height="24" rx="3" fill="#f7f4e4" fill-opacity=".94"/><text x="1028" y="670" font-size="12" fill="#2b514e">R04 东部就业 / 商业文化</text><path d="M1180 458L1271 509" fill="none" stroke="#f8f4e7" stroke-width="3"/><path d="M1180 458L1271 509" fill="none" stroke="#517970" stroke-width="1"/><circle cx="1271" cy="509" r="3" fill="#fff5d8" stroke="#648174"/><rect x="1017" y="440" width="326" height="24" rx="3" fill="#f7f4e4" fill-opacity=".94"/><text x="1022" y="458" font-size="12" fill="#2b514e">R05 B09站 / B10候车 S06（站场夸张）</text><path d="M1118 343L1100 400" fill="none" stroke="#f8f4e7" stroke-width="3"/><path d="M1118 343L1100 400" fill="none" stroke="#517970" stroke-width="1"/><circle cx="1100" cy="400" r="3" fill="#fff5d8" stroke="#648174"/><rect x="1015" y="325" width="206" height="24" rx="3" fill="#f7f4e4" fill-opacity=".94"/><text x="1020" y="343" font-size="12" fill="#2b514e">R07 庭院住宅 / 私院不通行</text><path d="M690 922L833 850" fill="none" stroke="#f8f4e7" stroke-width="3"/><path d="M690 922L833 850" fill="none" stroke="#517970" stroke-width="1"/><circle cx="833" cy="850" r="3" fill="#fff5d8" stroke="#648174"/><rect x="575" y="904" width="230" height="24" rx="3" fill="#f7f4e4" fill-opacity=".94"/><text x="580" y="922" font-size="12" fill="#2b514e">R09 沙滩 / 河口湿地 / 岩岸</text><path d="M1121 777L1088 835" fill="none" stroke="#f8f4e7" stroke-width="3"/><path d="M1121 777L1088 835" fill="none" stroke="#517970" stroke-width="1"/><circle cx="1088" cy="835" r="3" fill="#fff5d8" stroke="#648174"/><rect x="970" y="759" width="302" height="24" rx="3" fill="#f7f4e4" fill-opacity=".94"/><text x="975" y="777" font-size="12" fill="#2b514e">CF01 B44渔务候选（多棚/船/码头未采纳）</text><path d="M857 228L897 364" fill="none" stroke="#f8f4e7" stroke-width="3"/><path d="M857 228L897 364" fill="none" stroke="#517970" stroke-width="1"/><circle cx="897" cy="364" r="3" fill="#fff5d8" stroke="#648174"/><rect x="766" y="210" width="182" height="24" rx="3" fill="#f7f4e4" fill-opacity=".94"/><text x="771" y="228" font-size="12" fill="#2b514e">偏差：多出的上游主河桥不采纳</text></g><g id="editable_north"><rect x="1290" y="37" width="65" height="76" fill="#f4f4e6" fill-opacity=".9"/><path d="M1321 97L1321 57M1312 67L1321 57L1330 67" stroke="#365f5c" stroke-width="2" fill="none"/><text x="1313" y="52" font-size="18" fill="#2b514e">N</text></g><g id="exact_layout_index_not_ai_building_positions"><rect x="0" y="953" width="1374" height="192" fill="#f7f4e7" fill-opacity=".95"/><text x="15" y="972" font-size="12" fill="#2b514e">准确底稿ID索引（不作生成楼体定位）；原30＋B44候选1，背景112；原27用途＋U28/U29候选。</text><text x="15" y="990" font-size="10.5" fill="#2b514e">B01 玩家家（泉巷之家候选） / P1</text><text x="15" y="1002.4" font-size="10.5" fill="#2b514e">B02 澄日便利店（候选） / P1</text><text x="15" y="1014.8" font-size="10.5" fill="#2b514e">B03 泉页书店文具（候选） / P1</text><text x="15" y="1027.2" font-size="10.5" fill="#2b514e">B04 染庭咖啡（候选） / P1</text><text x="15" y="1039.6" font-size="10.5" fill="#2b514e">B05 旧染织工坊店（候选） / future</text><text x="15" y="1052" font-size="10.5" fill="#2b514e">B06 校前小食店（候选） / P1</text><text x="15" y="1064.4" font-size="10.5" fill="#2b514e">B07 校前运动用品（候选） / future</text><text x="15" y="1076.8" font-size="10.5" fill="#2b514e">B09 澄坂主站 / background</text><text x="15" y="1089.2" font-size="10.5" fill="#2b514e">B10 公交候车棚 / background</text><text x="15" y="1101.6" font-size="10.5" fill="#2b514e">B11 站前交番 / future</text><text x="15" y="1114" font-size="10.5" fill="#2b514e">B12 青帽塔（旧配水塔） / background</text><text x="467" y="990" font-size="10.5" fill="#2b514e">B20 澄坂市民医院（候选） / future</text><text x="467" y="1002.4" font-size="10.5" fill="#2b514e">B21 独立公共图书馆（候选） / future</text><text x="467" y="1014.8" font-size="10.5" fill="#2b514e">B22 社区中心（候选） / future</text><text x="467" y="1027.2" font-size="10.5" fill="#2b514e">B30 东区事务办公楼（候选） / future</text><text x="467" y="1039.6" font-size="10.5" fill="#2b514e">B31 东文化馆（候选） / future</text><text x="467" y="1052" font-size="10.5" fill="#2b514e">B32 东街商业裙房（候选） / future</text><text x="467" y="1064.4" font-size="10.5" fill="#2b514e">B40 泉源神社（候选） / future</text><text x="467" y="1076.8" font-size="10.5" fill="#2b514e">B41 北坡庭院宅（候选） / future</text><text x="467" y="1089.2" font-size="10.5" fill="#2b514e">C01 主教学翼 / P1</text><text x="467" y="1101.6" font-size="10.5" fill="#2b514e">C02 历史旧校舍 / future</text><text x="467" y="1114" font-size="10.5" fill="#2b514e">C03 图书学习翼 / P1</text><text x="919" y="990" font-size="10.5" fill="#2b514e">C04 特别教学翼 / future</text><text x="919" y="1002.4" font-size="10.5" fill="#2b514e">C05 社团活动翼 / future</text><text x="919" y="1014.8" font-size="10.5" fill="#2b514e">C06 讲堂与校史馆 / future</text><text x="919" y="1027.2" font-size="10.5" fill="#2b514e">C07 食堂与生活服务 / future</text><text x="919" y="1039.6" font-size="10.5" fill="#2b514e">C08 体育馆与储物翼 / P1</text><text x="919" y="1052" font-size="10.5" fill="#2b514e">C09 泳池更衣淋浴与设备翼（候选） / future</text><text x="919" y="1064.4" font-size="10.5" fill="#2b514e">B42 白岬小灯塔（候选） / future</text><text x="919" y="1076.8" font-size="10.5" fill="#2b514e">B43 湖林旧水务巡检小屋（候选） / future</text><text x="919" y="1089.2" font-size="10.5" fill="#2b514e">B44 湾角渔务与鲜食小屋（候选） / future_space_candidate</text><text x="15" y="1133" font-size="11" fill="#2b514e">PS01校门侧 · PS02井渠转角 · PS03旧桥陆侧 · PS04站前树荫｜三正式桥与门位按板；新钱汤/渔业/灯塔/泳池均未批准开放。</text></g></svg>